# xmcd
#
# Track frame offsets:
#	150
#	16730
#	37605
#	67470
#
# Disc length: 1158 seconds
#
# Revision: 1
# Processed by: cddbd v1.5.1PL2 Copyright (c) Steve Scherf et al.
# Submitted via: audiograbber 1.83.01
#
DISCID=29048404
DTITLE=Paul Rodgers - Soul Of Love Single
DYEAR=1996
DGENRE=Rock
TTITLE0=Soul Of Love LP
TTITLE1=Feel Like Makin Love - Live
TTITLE2=All Right Now - Live
TTITLE3=Soul Of Love Acoustic Version
EXTD=
EXTT0=
EXTT1=
EXTT2=
EXTT3=
PLAYORDER=
